<svg xmlns="http://www.w3.org/2000/svg" xmlns:xlink="http://www.w3.org/1999/xlink" version="1.1" id="Layer_1" x="0px" y="0px" viewBox="0 0 687 238" enable-background="new 0 0 687 238" xml:space="preserve">
  <path class="mci-logo-construction" d="M263.2 215.6c-6.4 0-9-6.7-9-13.4c0-7.4 2.3-14.3 9.6-14.3c4.2 0 6.9 3.1 7.6 7.1h5.2c-0.7-8-6.3-12.4-13.3-12.4 c-9.8 0-14.6 8.6-14.6 19.5c0 10.8 5 18.8 14.4 18.8c7.8 0 12.5-5.9 13.6-13.9h-5.2C271 212 268.1 215.6 263.2 215.6z M296.5 182.7 c-9.8 0-15 8.4-15 19c0 10.6 5.2 18.9 15 18.9c9.8 0 15-8.3 15-18.9C311.5 191.1 306.3 182.7 296.5 182.7z M296.5 215.4 c-5.3 0-9.6-4.9-9.6-13.7c0-8.8 4.3-13.8 9.6-13.8c5.3 0 9.6 4.9 9.6 13.8C306.1 210.5 301.8 215.4 296.5 215.4z M333.2 182.6 c-4.4 0-8.1 2.4-10.2 6.4h0.1v-5h-5v36h5v-20.7c0-6.5 2.8-11.4 8.9-11.4c3.9 0 6.1 2.9 6.1 7.3V220h6v-24 C344 188.2 341.3 182.6 333.2 182.6z M358 173h-5v11h-5v5h5v22.9c0 6.7 2.5 8.1 7.7 8.1h4.3v-5h-2.7c-3.2 0-4.3-0.9-4.3-3.7V189h7 v-5h-7V173z M375.2 191H375v-7h-5v36h5v-16.3c0-9.2 3-14.7 12-14.7v-6.3C381 182.5 377.7 185 375.2 191z M415 211.3v-18.7 c0-8.5-5.9-9.9-11.4-9.9c-6.9 0-12.6 3.2-12.9 12.2h5.1c0.2-5 3.4-7 7.7-7c3.2 0 6.9 0.8 6.9 6c0 4.5-4.8 4.1-10.4 5.3 c-5.2 1.2-10.4 2.9-10.4 11.1c0 7.2 4.6 10.2 10.2 10.2c4.3 0 8.1-1.8 10.9-5.6c0 3.9 1.5 5.6 4.1 5.6c1.6 0 3.4-0.4 3.4-1v-4.6 c0 0.3-1.1 0.3-1.5 0.3C414.9 215.4 415 214.1 415 211.3z M410 207.2c0 3.3-2.7 8.2-9.3 8.2c-3.1 0-5.9-1.4-5.9-5.3 c0-4.4 2.8-5.8 6.1-6.5c3.4-0.7 7.1-0.8 9.1-2.5V207.2z M436.3 215.6c-6.4 0-9-6.7-9-13.4c0-7.4 2.3-14.3 9.6-14.3 c4.2 0 6.9 3.1 7.6 7.1h5.2c-0.7-8-6.3-12.4-13.3-12.4c-9.8 0-14.6 8.6-14.6 19.5c0 10.8 5 18.8 14.4 18.8c7.8 0 12.5-5.9 13.6-13.9 h-5.2C444.1 212 441.2 215.6 436.3 215.6z M464 173h-6v11h-5v5h5v22.9c0 6.7 2.5 8.1 7.8 8.1h4.2v-5h-2.7c-3.2 0-3.3-0.9-3.3-3.7 V189h6v-5h-6V173z M487.9 182.7c-9.8 0-15 8.4-15 19c0 10.6 5.2 18.9 15 18.9s15-8.3 15-18.9C502.9 191.1 497.7 182.7 487.9 182.7z M487.9 215.4c-5.3 0-9.6-4.9-9.6-13.7c0-8.8 4.3-13.8 9.6-13.8c5.3 0 9.6 4.9 9.6 13.8C497.5 210.5 493.2 215.4 487.9 215.4z M514.2 191H514v-7h-5v36h5v-16.3c0-9.2 3-14.7 12-14.7v-6.3C520 182.5 516.7 185 514.2 191z M544.9 198.9c-4.7-1.3-10.1-2-10.1-6.3 c0-3.6 3.5-4.7 6.6-4.7c3.3 0 6.8 1.1 7.2 6.1h5.1c-0.4-9-5.8-11.3-12.6-11.3c-5.4 0-11.5 3-11.5 10.3c0 6.9 5.1 8.9 10.1 10.3 c5.1 1.3 10.1 2.1 10.1 6.7c0 4.6-4.3 5.2-7.5 5.2c-4.2 0-8.1-1.2-8.3-7.2h-5.1c0.3 9 6.1 12.5 13.1 12.5c6.3 0 13.1-2.7 13.1-11.3 C555 202.1 550 200.2 544.9 198.9z M562 220h3.6c0.1 2-0.6 5.6-3.6 6.6v3.5c5-1.5 7-5.8 7-11V212h-7V220z M597 220h5v-36h-5V220z M602 170h-5v7h5V170z M625.3 182.6c-4.4 0-7.9 2.4-10.1 6.4H615v-5h-5v36h5v-20.7c0-6.5 3.3-11.4 9.4-11.4c3.9 0 6.6 2.9 6.6 7.3 V220h5v-24C636 188.2 633.5 182.6 625.3 182.6z M656.8 215.6c-6.4 0-9-6.7-9-13.4c0-7.4 2.3-14.3 9.6-14.3c4.2 0 6.9 3.1 7.6 7.1 h5.2c-0.7-8-6.3-12.4-13.3-12.4c-9.8 0-14.6 8.6-14.6 19.5c0 10.8 5 18.8 14.4 18.8c7.8 0 12.5-5.9 13.6-13.9h-5.2 C664.6 212 661.7 215.6 656.8 215.6z M677 212v8h7v-8H677z"/>
  <path class="mci-logo-mitchell" d="M343 84.6V159h-20V87.5c0-8.6-1.8-13.4-7.2-13.4c-6.1 0-9.8 5.7-9.8 17.6V159h-19V87.5c0-8.6-2.3-13.4-7.7-13.4 c-6.1 0-10.3 5.7-10.3 17.6V159h-19V57h18v10h0.4c4.9-9 10.9-13.3 19-13.3c8.8 0 15.2 6.3 17.3 16.3h0.3c2.9-11 10.1-16.3 19.1-16.3 C336.8 53.7 343 64.7 343 84.6z M354 49h19V30h-19V49z M354 159h19V57h-19V159z M408 29h-19v28h-10v17h10v59.3 c0 20.8 2.6 27.1 17.7 27.1c4.5 0 8.3-0.6 12.3-1.1V141c-1 0.2-2.7 0.4-4.2 0.4c-5.6 0-6.8-3.2-6.8-11.3V74h11V57h-11V29z M682.3 141.4c-5.6 0-7.3-3.2-7.3-11.3V15h-19v118.3c0 20.8 3.1 27.1 18.2 27.1c4.5 0 7.8-0.6 12.8-1.1V141 C685 141.2 683.8 141.4 682.3 141.4z M638 130.1V15h-20v118.3c0 20.8 3.1 27.1 18.2 27.1c4.5 0 7.8-0.6 12.8-1.1V141 c-2 0.2-2.7 0.4-4.2 0.4C639.2 141.4 638 138.1 638 130.1z M452.3 73.2c7.3 0 8.7 10.8 8.7 20.8h18.4c0-25-9.2-40-26.9-40 S422 65.8 422 108c0 41.3 9.5 54.1 28.7 54.1c20.4 0 28.6-15.1 28.6-42.1H461c0 17-2.9 24.1-9.3 24.1c-8.6 0-10.3-10.4-10.3-35.8 C441.3 84.5 442.8 73.2 452.3 73.2z M522 53.8c-8.1 0-13.3 4.2-17 13.2H505V16h-19v143h19V91.1c0-11.5 3.5-17 10.1-17 c5.7 0 6.9 4 6.9 14.3V159h19V83.1C541 62.8 534 53.8 522 53.8z M608 108.4v3.6h-38v8.2c0 12 2.3 24 9.5 24c6.4 0 9-7.2 10.2-19.2 h17.3c-0.7 24-9.1 37.1-27.2 37.1c-27.9 0-29-27.2-29-52.8c0-27.5 3.9-55.5 29.9-55.5C603 53.8 608 76.9 608 108.4z M589.6 99 c-0.4-16-1.8-24.6-9.7-24.6c-7.7 0-9.9 10.7-9.9 20.3V99H589.6z"/>
  <path class="mci-logo-icon" d="M181.5 0H50.9C22.8 0 0 22.6 0 50.4v54.2l0 0l0 0.3v82.7C0 215.4 22.8 238 50.9 238h130.6c28 0 50.5-22.6 50.5-50.4V50.4 C232 22.6 209.5 0 181.5 0z M10 50.4C10 27.9 28.1 10 50.9 10h130.6c22.7 0 41.5 17.9 41.5 40.4v46.5l-108-71l0.1 0.1L10 98V50.4z M181.5 228H50.9C28.1 228 10 210.1 10 187.6v-64.2l40-27.5V207h29v-77.2c0-13.6 1.6-24.1 10.3-24.1c7.8 0 12.7 9.5 12.7 19.3V207 h28v-77.2c0-13.6 3.5-24.1 12.3-24.1c7.8 0 11.7 9.5 11.7 19.3V207h28v-85.3c0-22.8-8.4-35.4-26.5-35.4c-12.9 0-22.8 6.7-26.9 18.7 h-0.4c-3-12-12.1-19-24.6-19c-11.5 0-18.1 5-25 15H78V76.6l37.1-25.2L223 122.3v65.3C223 210.1 204.2 228 181.5 228z"/>
</svg>